<?xml version="1.0" encoding="UTF-8" standalone="no"?>
<svg width="246px" height="150px" viewBox="0 0 246 150" version="1.1" xmlns="http://www.w3.org/2000/svg" xmlns:xlink="http://www.w3.org/1999/xlink" xmlns:sketch="http://www.bohemiancoding.com/sketch/ns">
    <!-- Generator: Sketch 3.4 (15588) - http://www.bohemiancoding.com/sketch -->
    <title>Group</title>
    <desc>Created with Sketch.</desc>
    <defs></defs>
    <g id="Page-1" stroke="none" stroke-width="1" fill="none" fill-rule="evenodd" sketch:type="MSPage">
        <g id="Artboard-5" sketch:type="MSArtboardGroup">
            <g id="Group" sketch:type="MSLayerGroup">
                <ellipse id="Oval-12" fill="#FFFFFF" sketch:type="MSShapeGroup" cx="188" cy="6" rx="6" ry="6"></ellipse>
                <ellipse id="Oval-12" fill="#FFFFFF" sketch:type="MSShapeGroup" cx="214" cy="32" rx="6" ry="6"></ellipse>
                <ellipse id="Oval-12" fill="#FFFFFF" sketch:type="MSShapeGroup" cx="240" cy="6" rx="6" ry="6"></ellipse>
                <ellipse id="Oval-12" fill="#FFFFFF" sketch:type="MSShapeGroup" cx="136" cy="6" rx="6" ry="6"></ellipse>
                <ellipse id="Oval-12" fill="#FFFFFF" sketch:type="MSShapeGroup" cx="84" cy="6" rx="6" ry="6"></ellipse>
                <ellipse id="Oval-12" fill="#FFFFFF" sketch:type="MSShapeGroup" cx="58" cy="6" rx="6" ry="6"></ellipse>
                <ellipse id="Oval-12" fill="#FFFFFF" sketch:type="MSShapeGroup" cx="6" cy="6" rx="6" ry="6"></ellipse>
                <ellipse id="Oval-12" fill="#FFFFFF" sketch:type="MSShapeGroup" cx="84" cy="32" rx="6" ry="6"></ellipse>
                <path d="M5.92578125,5.77539062 L43.3007213,43.1503306 L43.3007213,149.97998" id="Path-12" stroke="#FFFFFF" stroke-width="4" sketch:type="MSShapeGroup"></path>
                <path d="M58,5.9375 L58,149.97998" id="Path-13" stroke="#FFFFFF" stroke-width="4" sketch:type="MSShapeGroup"></path>
                <path d="M84,31.2871094 L84,149.97998" id="Path-14" stroke="#FFFFFF" stroke-width="4" sketch:type="MSShapeGroup"></path>
                <path d="M84.1347656,5.13085938 L119.890315,40.8864092 L119.890315,149.97998" id="Path-15" stroke="#FFFFFF" stroke-width="4" sketch:type="MSShapeGroup"></path>
                <path d="M136,5.29296875 L136,149.97998" id="Path-16" stroke="#FFFFFF" stroke-width="4" sketch:type="MSShapeGroup"></path>
                <path d="M188.033203,5.78320312 L154.163412,39.6529944 L154.163412,149.97998" id="Path-17" stroke="#FFFFFF" stroke-width="4" sketch:type="MSShapeGroup"></path>
                <path d="M213.628906,32.5859375 L175.469309,70.7455346 L175.469309,149.97998" id="Path-18" stroke="#FFFFFF" stroke-width="4" sketch:type="MSShapeGroup"></path>
                <path d="M240.394031,4.828125 L240.394031,47.7434065 L196.394031,92.0017197 L196.394031,149.97998" id="Path-19" stroke="#FFFFFF" stroke-width="4" sketch:type="MSShapeGroup"></path>
                <ellipse id="Oval-12" fill="#FFFFFF" sketch:type="MSShapeGroup" cx="84" cy="32" rx="6" ry="6"></ellipse>
            </g>
        </g>
    </g>
</svg>