<?xml version="1.0" encoding="UTF-8" standalone="no"?>
<svg width="3000px" height="300px" viewBox="0 0 3000 300" version="1.1" xmlns="http://www.w3.org/2000/svg" xmlns:xlink="http://www.w3.org/1999/xlink" xmlns:sketch="http://www.bohemiancoding.com/sketch/ns">
    <!-- Generator: Sketch 3.4.4 (17249) - http://www.bohemiancoding.com/sketch -->
    <title>Artboard 5</title>
    <desc>Created with Sketch.</desc>
    <defs>
        <filter x="-50%" y="-50%" width="200%" height="200%" filterUnits="objectBoundingBox" id="filter-1">
            <feOffset dx="0" dy="2" in="SourceAlpha" result="shadowOffsetInner1"></feOffset>
            <feGaussianBlur stdDeviation="1" in="shadowOffsetInner1" result="shadowBlurInner1"></feGaussianBlur>
            <feComposite in="shadowBlurInner1" in2="SourceAlpha" operator="arithmetic" k2="-1" k3="1" result="shadowInnerInner1"></feComposite>
            <feColorMatrix values="0 0 0 0 0   0 0 0 0 0   0 0 0 0 0  0 0 0 0.35 0" in="shadowInnerInner1" type="matrix" result="shadowMatrixInner1"></feColorMatrix>
            <feMerge>
                <feMergeNode in="SourceGraphic"></feMergeNode>
                <feMergeNode in="shadowMatrixInner1"></feMergeNode>
            </feMerge>
        </filter>
        <filter x="-50%" y="-50%" width="200%" height="200%" filterUnits="objectBoundingBox" id="filter-2">
            <feOffset dx="0" dy="2" in="SourceAlpha" result="shadowOffsetInner1"></feOffset>
            <feGaussianBlur stdDeviation="1" in="shadowOffsetInner1" result="shadowBlurInner1"></feGaussianBlur>
            <feComposite in="shadowBlurInner1" in2="SourceAlpha" operator="arithmetic" k2="-1" k3="1" result="shadowInnerInner1"></feComposite>
            <feColorMatrix values="0 0 0 0 0   0 0 0 0 0   0 0 0 0 0  0 0 0 0.35 0" in="shadowInnerInner1" type="matrix" result="shadowMatrixInner1"></feColorMatrix>
            <feMerge>
                <feMergeNode in="SourceGraphic"></feMergeNode>
                <feMergeNode in="shadowMatrixInner1"></feMergeNode>
            </feMerge>
        </filter>
    </defs>
    <g id="Page-1" stroke="none" stroke-width="1" fill="none" fill-rule="evenodd" sketch:type="MSPage">
        <g id="Artboard-5" sketch:type="MSArtboardGroup" stroke="#FFFFFF" stroke-width="2" fill-opacity="0.5">
            <path d="M1400,300 L1529.68359,268.605469 L1609.16797,257.796875 L1685.44531,210.039062 L1747,206.566406 L1803.44141,166.714844 L1849.62891,151.476562 L1891.21875,167.101562 L1935.93359,147.003906 L1963.71484,114.746094 L2026.87891,103.328125 L2077.14844,73.5898438 L2153.48047,50.1015625 L2239.10547,73.5898438 L2311.68359,59.3515625 L2362.30469,64.8671875 L2413.26953,43.7226562 L2535.03125,23.5820312 L2581.51562,41.2929688 L2608.60156,29.8320312 L2720.03516,43.0703125 L2847.71094,78.1054688 L2855.83594,138.183594 L2908.14844,147.210938 L2931.07031,197.179688 L2963.62891,229.085938 L2984.12109,280.136719 L3000,300" id="Path-26" fill="#BE222B" filter="url(#filter-1)" sketch:type="MSShapeGroup"></path>
            <path d="M1380.20703,300 L1532.33008,276.378906 L1600,249.529297 L1683.02734,239.673828 L1759.20312,219.851562 L1774.17773,202.013672 L1802.39062,186.123047 L1872.55664,197.179688 L1965.94727,167.125 L1976.06055,150 L2021.86914,92.2109375 L2092.59375,92.2109375 L2153.64453,67.6074219 L2236.12305,54.4335938 L2323.81055,78.1054688 L2361.57227,54.4335938 L2419.81055,62.1210938 L2526.28711,46.9414062 L2579.40039,67.6074219 L2630.97656,58.2734375 L2691.4043,75.7480469 L2798.5918,73.359375 L2828.5,139.412109 L2903.73242,136.632812 L2927.22266,205.568359 L2954.17969,231.050781 L2970.76562,280.496094 L3000,300" id="Path-26" fill="#1970B7" filter="url(#filter-2)" sketch:type="MSShapeGroup"></path>
        </g>
    </g>
</svg>